<svg xmlns="http://www.w3.org/2000/svg" version="1.1" xmlns:xlink="http://www.w3.org/1999/xlink" width="512" height="512" x="0" y="0" viewBox="0 0 48 48" style="enable-background:new 0 0 512 512" xml:space="preserve" class=""><g><path fill="#f6921e" fill-rule="nonzero" d="M24 34a5.002 5.002 0 0 1 4.9 4H44v2l-15.1.001a5.002 5.002 0 0 1-9.8 0L4 40v-2h15.1a5.002 5.002 0 0 1 4.9-4zm0 2a3 3 0 1 0 0 6 3 3 0 0 0 0-6zm10-17a5.002 5.002 0 0 1 4.9 4H44v2l-5.1.001a5.002 5.002 0 0 1-9.8 0L4 25v-2h25.1a5.002 5.002 0 0 1 4.9-4zm0 2a3 3 0 1 0 0 6 3 3 0 0 0 0-6zM14 4a5.002 5.002 0 0 1 4.9 4H44v2l-25.1.001a5.002 5.002 0 0 1-9.8 0L4 10V8h5.1A5.002 5.002 0 0 1 14 4zm0 2a3 3 0 1 0 0 6 3 3 0 0 0 0-6z" opacity="1" data-original="#000000"></path></g></svg>