<?xml version="1.0" encoding="utf-8"?>
<svg version="1.1" id="Layer_1" xmlns="http://www.w3.org/2000/svg" xmlns:xlink="http://www.w3.org/1999/xlink" x="0px" y="0px"
	 width="99.2px" height="24px" viewBox="0 0 99.2 24" style="enable-background:new 0 0 99.2 24;" xml:space="preserve">
<path style="fill-rule:evenodd;clip-rule:evenodd;fill:#FFFFFF;" d="M0,4.2C0,2.7,0,2,0.3,1.4c0.2-0.5,0.6-0.9,1.1-1.1
	C2,0,2.7,0,4.2,0h15.7c1.5,0,2.2,0,2.7,0.3c0.5,0.2,0.9,0.6,1.1,1.1C24,2,24,2.7,24,4.2v15.7c0,1.5,0,2.2-0.3,2.7
	c-0.2,0.5-0.6,0.9-1.1,1.1C22,24,21.3,24,19.8,24H4.2c-1.5,0-2.2,0-2.7-0.3c-0.5-0.2-0.9-0.6-1.1-1.1C0,22,0,21.3,0,19.8V4.2z
	 M9.6,19.4c3.2,0,5.6-2.3,5.6-5.4V5.7h-3v8.2c0,1.5-1.1,2.6-2.6,2.6c-1.5,0-2.6-1.1-2.6-2.6V5.7H4v8.2C4,17,6.4,19.4,9.6,19.4z
	 M20.2,9.2v9.9h-2.8V9.2H20.2z"/>
<path style="fill:#F74A28;" d="M18.8,7.9c1,0,1.8-0.7,1.8-1.8c0-1-0.8-1.7-1.8-1.7c-1,0-1.8,0.7-1.8,1.7C17,7.2,17.8,7.9,18.8,7.9z"
	/>
<path style="fill:#FFFFFF;" d="M33.6,19.4c2.5,0,4.7-1.2,5.9-3l-2.3-1.4c-0.8,1.1-2.1,1.9-3.6,1.9c-2.5,0-4.3-1.9-4.3-4.4
	s1.9-4.4,4.3-4.4c1.5,0,2.8,0.7,3.6,1.9l2.3-1.4c-1.2-1.8-3.4-3-5.9-3c-4,0-7.1,3-7.1,6.9S29.6,19.4,33.6,19.4z"/>
<path style="fill-rule:evenodd;clip-rule:evenodd;fill:#FFFFFF;" d="M50.9,14.2c0,3-2.3,5.2-5.3,5.2c-3,0-5.3-2.2-5.3-5.2
	S42.6,9,45.6,9C48.6,9,50.9,11.2,50.9,14.2z M42.9,14.2c0,1.6,1.2,2.7,2.7,2.7c1.6,0,2.7-1.2,2.7-2.7s-1.1-2.7-2.7-2.7
	C44,11.4,42.9,12.6,42.9,14.2z"/>
<path style="fill:#FFFFFF;" d="M54.3,19.1v-4.7c0-1.7,1.1-2.8,2.9-2.8h0.4V9.1h-0.4c-1.2,0-2.1,0.5-2.9,1.4V9.2h-2.5v9.9H54.3z"/>
<path style="fill-rule:evenodd;clip-rule:evenodd;fill:#FFFFFF;" d="M67.8,17.4c-1,1.2-2.6,2-4.5,2c-3.2,0-5.5-2.3-5.5-5.2
	c0-2.9,2.3-5.2,5.3-5.2c3,0,5.2,2.2,5.2,5.2c0,0.3,0,0.6-0.1,0.9h-7.7c0.4,1.2,1.4,2,2.8,2c1.2,0,2.2-0.6,2.7-1.2L67.8,17.4z
	 M63.1,11.2c-1.2,0-2.2,0.8-2.5,2h5.1C65.3,12,64.3,11.2,63.1,11.2z"/>
<path style="opacity:0.2;fill:#FFFFFF;enable-background:new    ;" d="M76.9,7.8h20.8c0.9,0,1.6,0.7,1.6,1.6v9.1
	c0,0.9-0.7,1.6-1.6,1.6H76.9c-0.9,0-1.6-0.7-1.6-1.6V9.4C75.2,8.5,76,7.8,76.9,7.8z"/>
<path style="fill:#FFFFFF;" d="M92.5,11.4c1.4,0,2.3,1,2.3,2.5c0,1.5-0.9,2.5-2.3,2.5c-1.4,0-2.3-1-2.3-2.5
	C90.2,12.3,91,11.4,92.5,11.4z M92.5,12.2c-0.8,0-1.3,0.6-1.3,1.6c0,1,0.5,1.6,1.3,1.6c0.8,0,1.3-0.6,1.3-1.6
	C93.8,12.8,93.3,12.2,92.5,12.2z"/>
<path style="fill:#FFFFFF;" d="M86,14.5v1.8h-1v-4.8h2c1.1,0,1.7,0.6,1.7,1.5c0,0.6-0.3,1.1-0.9,1.4l1,1.9h-1.1l-0.9-1.8H86z
	 M86,12.2v1.5h0.9c0.5,0,0.8-0.3,0.8-0.8c0-0.5-0.3-0.8-0.8-0.8H86z"/>
<path style="fill:#FFFFFF;" d="M79.8,11.4h2c1,0,1.7,0.7,1.7,1.6c0,1-0.7,1.6-1.7,1.6h-0.9v1.5h-1V11.4z M80.8,12.2v1.7h0.7
	c0.6,0,0.9-0.3,0.9-0.9c0-0.5-0.3-0.9-0.9-0.9H80.8z"/>
</svg>
